<svg height="480pt" viewBox="0 0 480 480" width="480pt" xmlns="http://www.w3.org/2000/svg"><path d="m440 0h-400c-22.082031.0273438-39.9726562 17.917969-40 40v400c.0273438 22.082031 17.917969 39.972656 40 40h400c22.082031-.027344 39.972656-17.917969 40-40v-400c-.027344-22.082031-17.917969-39.9726562-40-40zm-400 16h400c13.253906 0 24 10.746094 24 24v40h-448v-40c0-13.253906 10.746094-24 24-24zm400 448h-400c-13.253906 0-24-10.746094-24-24v-344h448v344c0 13.253906-10.746094 24-24 24zm0 0"/><path d="m42.320312 53.679688c.378907.34375.777344.664062 1.191407.960937.449219.300781.9375.542969 1.449219.71875.453124.230469.9375.394531 1.4375.480469.53125.089844 1.066406.144531 1.601562.160156 2.117188-.03125 4.144531-.859375 5.679688-2.320312.722656-.765626 1.292968-1.660157 1.679687-2.640626.445313-.949218.664063-1.988281.640625-3.039062-.015625-.535156-.074219-1.070312-.167969-1.601562-.082031-.5-.238281-.988282-.472656-1.4375-.179687-.507813-.417969-.992188-.71875-1.441407l-.960937-1.199219c-1.941407-1.84375-4.648438-2.644531-7.28125-2.160156-.5.085938-.984376.25-1.4375.480469-.511719.175781-1 .417969-1.449219.71875l-1.191407.960937c-1.476562 1.523438-2.308593 3.558594-2.320312 5.679688.011719 1.046875.230469 2.078125.640625 3.039062.367187.988282.9375 1.890626 1.679687 2.640626zm0 0"/><path d="m76.960938 55.359375c.960937.410156 1.992187.628906 3.039062.640625 2.128906.023438 4.175781-.8125 5.679688-2.320312 1.507812-1.503907 2.34375-3.550782 2.320312-5.679688-.011719-.511719-.070312-1.019531-.167969-1.519531-.066406-.53125-.226562-1.046875-.472656-1.519531-.179687-.507813-.417969-.992188-.71875-1.441407-.296875-.417969-.617187-.820312-.960937-1.199219-3.136719-3.136718-8.222657-3.136718-11.359376 0-3.136718 3.136719-3.136718 8.222657 0 11.359376.765626.722656 1.660157 1.292968 2.640626 1.679687zm0 0"/><path d="m112 56c.507812-.011719 1.011719-.066406 1.511719-.160156.53125-.074219 1.050781-.238282 1.527343-.480469.511719-.175781.996094-.417969 1.441407-.71875.417969-.296875.816406-.617187 1.199219-.960937 3.09375-3.15625 3.09375-8.203126 0-11.359376l-1.199219-.960937c-.445313-.300781-.929688-.542969-1.441407-.71875-.476562-.242187-.996093-.40625-1.527343-.480469-2.609375-.488281-5.289063.316406-7.199219 2.160156-2.308594 2.289063-3.003906 5.75-1.753906 8.75 1.25 3.003907 4.191406 4.953126 7.441406 4.929688zm0 0"/><path d="m432 176h-24v-24c0-4.417969-3.582031-8-8-8h-128c-12.640625.035156-24.511719 6.0625-32 16.246094-7.488281-10.183594-19.359375-16.210938-32-16.246094h-128c-4.417969 0-8 3.582031-8 8v24h-24c-4.417969 0-8 3.582031-8 8v208c0 4.417969 3.582031 8 8 8h384c4.417969 0 8-3.582031 8-8v-208c0-4.417969-3.582031-8-8-8zm-160-16h120v192h-120c-8.683594.03125-17.117188 2.914062-24 8.207031v-176.207031c0-13.253906 10.746094-24 24-24zm-184 0h120c13.253906 0 24 10.746094 24 24v176.207031c-6.882812-5.292969-15.316406-8.175781-24-8.207031h-120zm-32 32h16v192h-16zm32 192v-16h120c10.167969.011719 19.230469 6.417969 22.632812 16zm184-16h120v16h-142.632812c3.402343-9.582031 12.464843-15.988281 22.632812-16zm152 16h-16v-192h16zm0 0"/><path d="m280 200h80v16h-80zm0 0"/><path d="m280 248h80v16h-80zm0 0"/><path d="m280 296h80v16h-80zm0 0"/><path d="m120 200h80v16h-80zm0 0"/><path d="m120 248h80v16h-80zm0 0"/><path d="m120 296h80v16h-80zm0 0"/></svg>